<?xml version="1.0" encoding="utf-8"?>
<!-- Generator: Adobe Illustrator 19.2.0, SVG Export Plug-In . SVG Version: 6.00 Build 0)  -->
<svg version="1.1" id="Layer_1" xmlns="http://www.w3.org/2000/svg" xmlns:xlink="http://www.w3.org/1999/xlink" x="0px" y="0px"
	 viewBox="0 0 582.5 295.4" width="450px" height="198px" style="enable-background:new 0 0 582.5 295.4;" xml:space="preserve">
<style type="text/css">
	.st0{fill:#903526;}
</style>
<g>
	<g>
		<g>
			<path class="st0" d="M216.8,75.3c0,18,10.6,32.7,23.8,32.7c3.3,0,4.8-0.5,9.8-2.7c0.7-0.3,1.5-0.5,2.1-0.5c0.9,0,1.5,0.9,1.5,1.7
				c0,3.8-11.8,8.6-21.2,8.6c-19.5,0-34.6-15.2-34.6-35.1c0-22.1,18.3-39.4,41.9-39.4c25.2,0,43.8,21,43.8,49.6
				c0,17.8-9.8,37.8-25.2,51.3c-13,11.6-27.2,19.7-50.3,29.1c-3.8,1.4-5.8,2.1-7.2,2.1c-1.2,0-2.2-0.9-2.2-2.1
				c0-1.2,0.7-1.9,2.6-2.7c13.2-5,25.7-13,36.1-23.3c17.6-17.1,26.4-35.9,26.4-57.2c0-24-11.8-42.6-26.9-42.6
				C225.5,44.8,216.8,57.7,216.8,75.3z"/>
			<path class="st0" d="M317.3,75.3c0,18,10.6,32.7,23.8,32.7c3.3,0,4.8-0.5,9.8-2.7c0.7-0.3,1.5-0.5,2.1-0.5c0.9,0,1.5,0.9,1.5,1.7
				c0,3.8-11.8,8.6-21.2,8.6c-19.5,0-34.6-15.2-34.6-35.1c0-22.1,18.3-39.4,41.9-39.4c25.2,0,43.8,21,43.8,49.6
				c0,17.8-9.8,37.8-25.2,51.3c-13,11.6-27.2,19.7-50.3,29.1c-3.8,1.4-5.8,2.1-7.2,2.1c-1.2,0-2.2-0.9-2.2-2.1
				c0-1.2,0.7-1.9,2.6-2.7c13.2-5,25.7-13,36.1-23.3c17.6-17.1,26.4-35.9,26.4-57.2c0-24-11.8-42.6-26.9-42.6
				C326,44.8,317.3,57.7,317.3,75.3z"/>
		</g>
	</g>
	<g>
		<g>
			<path class="st0" d="M57.1,221.8c0,1.3,0.1,1.8,0.4,1.8c0.2,0,0.5-0.1,0.7-0.4c0.6-0.6,2.9-2.6,3.7-3.2c1.7-1.3,4.2-2.1,7.1-2.1
				c4.6,0,6.8,1.3,9.5,5.5c0.1,0.3,0.4,0.5,0.6,0.5c0.3,0,0.3,0,1.8-1.5c2.9-2.8,6.6-4.4,10.3-4.4c3.1,0,6,1,8,2.9
				c2,1.8,2.7,3.7,2.7,7.6v18.1c0,4.9,0.3,5.3,3.4,5.8c1.8,0.2,2.4,0.6,2.4,1.3c0,0.7-0.4,1-1.4,1c-0.5,0-0.5,0-2.9-0.1
				c-1.8-0.1-4.1-0.2-5.2-0.2c-1.6,0-3,0.1-6.9,0.3c-0.4,0.1-1,0.1-1.2,0.1c-0.9,0-1.3-0.3-1.3-1c0-0.7,0.5-1,2.4-1.3
				c3.2-0.4,3.4-0.9,3.4-5.8v-16.5c0-2.7-0.4-4.3-1.3-5.5c-1-1.4-3.2-2.2-5.5-2.2c-2.7,0-5.5,1.2-6.9,3c-0.9,1.1-1,1.8-1,4.3v17
				c0,4.9,0.3,5.3,3.4,5.8c1.8,0.2,2.4,0.6,2.4,1.3c0,0.7-0.4,1-1.4,1c-0.5,0-0.5,0-2.9-0.1c-1.7-0.1-4.1-0.2-5.1-0.2
				c-1.7,0-3,0.1-7,0.3c-0.4,0.1-1,0.1-1.2,0.1c-0.9,0-1.3-0.3-1.3-1c0-0.7,0.5-1,2.4-1.3c3.2-0.4,3.4-0.9,3.4-5.8v-14.2
				c0-3.3-0.3-5.3-1-6.7c-1-1.9-3.2-3-6-3c-2.2,0-4.2,0.7-5.8,1.8c-1.6,1.3-2.1,2.5-2.1,5.6v16.5c0,4.9,0.3,5.3,3.4,5.8
				c1.8,0.2,2.4,0.6,2.4,1.3c0,0.7-0.4,1-1.3,1c-0.5,0-0.5,0-2.9-0.1c-2-0.1-3.9-0.1-5.2-0.1c-1.6,0-2.1,0-6.9,0.2
				c-0.4,0.1-1,0.1-1.3,0.1c-0.8,0-1.3-0.3-1.3-1c0-0.7,0.5-1,2.4-1.3c3.2-0.4,3.4-0.9,3.4-5.8v-15.8c0-2.7-0.4-4.1-1.3-4.6
				c-0.5-0.3-0.5-0.3-2.6-0.4c-0.7-0.1-1.1-0.4-1.1-1c0-0.8,0.1-0.8,2.9-1.7c3.1-1.2,5.9-3.2,6.9-5.1c0.4-0.8,0.9-1.1,1.3-1.1
				c0.7,0,0.7,0.2,0.7,1.9V221.8z"/>
			<path class="st0" d="M145.1,226.3c0-4.6-1.2-6.6-3.9-6.6c-3.1,0-5.4,2.1-6.9,6.6c-0.5,1.5-0.9,2-2.1,2.6
				c-1.5,0.8-2.9,1.3-3.8,1.3c-1,0-1.8-0.6-1.8-1.4c0-2.4,2.7-6,5.8-8c3.1-1.9,6.9-2.9,11-2.9c6.1,0,9.1,1.8,9.1,5.8v22
				c0,3.3,0.7,4.4,2.4,4.4c0.8,0,1.5-0.3,2.3-0.8c0.9-0.7,1-0.7,1.3-0.7s0.7,0.4,0.7,0.7c0,2.1-5,5.5-8,5.5c-2.3,0-3.8-1.3-5.4-4.2
				c-0.7-1.3-0.8-1.5-1.1-1.5c-0.2,0-0.2,0-1.7,1.3c-3.5,2.8-7.4,4.6-10,4.6c-3.6,0-6-2.7-6-6.6c0-3.3,1.7-6.2,5-8.5
				c1.6-1.1,5-2.8,11.3-5.5c1.6-0.7,1.9-1.1,1.9-2.8V226.3z M145.1,236.9c0-0.6-0.3-0.9-0.7-0.9c-0.9,0-2.7,0.7-4.5,1.6
				c-3.7,2-4.9,3.8-4.9,7s1.4,5.2,3.6,5.2c1.8,0,4.1-1.3,5.2-2.9c0.9-1.3,1.3-3,1.3-5.5V236.9z"/>
			<path class="st0" d="M189.8,246.3c0,4.9,0.2,5.3,3.4,5.8c1.8,0.2,2.4,0.6,2.4,1.3c0,0.7-0.4,1-1.3,1c-0.4,0-0.5,0-3-0.1
				c-2.1-0.1-3.8-0.1-5.2-0.1c-1.9,0-2.8,0-7.1,0.2c-0.4,0.1-1,0.1-1.3,0.1c-0.8,0-1.3-0.3-1.3-1c0-0.7,0.6-1.1,2.4-1.3
				c3.2-0.4,3.4-0.8,3.4-5.8v-14.8c0-4.1-0.7-5.1-3.6-5.3c-1-0.1-1.5-0.4-1.5-1c0-0.7,0.2-0.8,2.6-1.6c2.8-1,5.2-2.3,6.9-3.8
				c1.8-1.5,1.9-1.6,2.4-1.6c0.7,0,0.9,0.6,0.9,2.8V246.3z M190.4,209c0,2.3-2,4.3-4.4,4.3s-4.4-2-4.4-4.4s1.9-4.4,4.3-4.4
				C188.5,204.6,190.4,206.6,190.4,209z"/>
			<path class="st0" d="M226.9,222.2c0,1.4,0.1,1.6,0.4,1.6c0.2,0,0.6-0.2,1-0.5c4.5-4.2,7.2-5.5,11.4-5.5c3.3,0,6.3,1,8.3,2.9
				c1.9,1.8,2.7,4.1,2.7,7.6v18c0,4.9,0.3,5.3,3.4,5.8c1.8,0.2,2.4,0.6,2.4,1.3c0,0.7-0.4,1-1.4,1c-0.5,0-0.5,0-2.9-0.1
				c-1.8-0.1-4.1-0.2-5.2-0.2c-1.8,0-3,0.1-7.1,0.3c-0.4,0.1-0.9,0.1-1.2,0.1c-0.9,0-1.3-0.3-1.3-1c0-0.7,0.5-1,2.4-1.3
				c3.2-0.4,3.4-0.9,3.4-5.8v-14.2c0-4-0.4-5.8-1.5-7.2c-1.3-1.6-3.6-2.5-6.1-2.5c-2.4,0-4.7,0.9-6.4,2.3c-1.3,1-1.8,2.7-1.8,4.9
				v16.7c0,4.9,0.3,5.3,3.4,5.8c1.8,0.2,2.4,0.6,2.4,1.3c0,0.7-0.4,1-1.4,1c-0.5,0-0.5,0-2.9-0.1c-1.8-0.1-4.1-0.2-5.2-0.2
				c-1.8,0-3.1,0.1-7.1,0.3c-0.4,0.1-1,0.1-1.2,0.1c-0.9,0-1.3-0.3-1.3-1c0-0.7,0.5-1,2.4-1.3c3.2-0.4,3.4-0.9,3.4-5.8v-15.2
				c0-5.2-0.1-5.5-3.4-5.7c-0.7-0.1-1.1-0.4-1.1-1c0-0.4,0.2-0.7,1-1c4.3-1.8,6.6-3.2,8.2-5.2c0.9-1.1,1.3-1.4,1.8-1.4
				s0.8,0.5,0.8,1.4V222.2z"/>
			<path class="st0" d="M299.3,225.7c-0.1,0.8-0.4,1.3-1,1.3s-1-0.4-1.4-1.8c-1.3-3.5-4.2-5.6-7.8-5.6c-3.7,0-6.3,2.1-6.3,4.9
				c0,1.6,0.8,2.9,2.6,4c0.7,0.5,0.7,0.5,7.1,3.2c6.4,2.7,9.3,5.9,9.3,10.6c0,3.6-2,7.5-4.9,9.7c-2.5,1.8-6.6,3-10.2,3
				c-3.3,0-9.1-1.4-10.4-2.5c-0.4-0.4-0.5-0.7-0.5-2.7l0.2-5.8c0-1,0.4-1.5,1.1-1.5s1.1,0.6,1.6,2.2c1.3,5.1,4.9,8.3,9,8.3
				c4.3,0,7.7-2.9,7.7-6.5c0-3.5-2.1-5.5-9.1-8.1c-7.7-3-10.2-5.4-10.2-9.7c0-6.3,5.8-10.8,13.9-10.8c2.7,0,8.1,0.7,9.1,1.3
				c0.4,0.2,0.6,0.8,0.6,1.6v0.4L299.3,225.7z"/>
			<path class="st0" d="M325.2,223.6c0-1.1-0.3-1.4-1.4-1.4h-0.5c-0.7,0.1-1.3,0.1-1.4,0.1c-0.8,0-1.3-0.3-1.3-1
				c0-0.7,0.1-0.8,3.5-2.4c2.6-1.5,4.8-3.9,6.7-7c0.4-0.6,0.9-1,1.3-1c0.4,0,0.7,0.5,0.7,1.3v5.2c0,1.5,0.3,1.8,1.9,1.8h6.6
				c1.4,0,1.8,0.3,1.8,1.5c0,1.1-0.4,1.5-1.5,1.5h-7.3c-1.3,0-1.5,0.1-1.5,1.9v19.2c0,5.3,1.3,7.2,4.9,7.2c1.7,0,2.4-0.2,5.2-2.1
				c0.4-0.1,0.7-0.3,0.9-0.3c0.3,0,0.6,0.3,0.6,0.7c0,0.5-0.4,1.1-1.3,1.9c-3.2,2.7-6.3,4.1-9.5,4.1c-5,0-8.3-3.4-8.3-8.6V223.6z"/>
			<path class="st0" d="M374.9,246.3c0,2.9,0.1,3.3,0.6,4.1c0.6,0.8,1.8,1.3,3.4,1.5c2.3,0.1,2.8,0.4,2.8,1.3c0,0.8-0.5,1.1-1.6,1.1
				c-0.4,0-0.6,0-3.4-0.1c-2.3-0.1-4.4-0.1-5.6-0.1c-1.8,0-2.8,0-7,0.2c-0.4,0.1-1,0.1-1.3,0.1c-0.8,0-1.3-0.3-1.3-1
				c0-0.7,0.6-1.1,2.4-1.3c3.2-0.4,3.4-0.8,3.4-5.8v-15.1c0-4.5-0.4-5.1-3.9-5.2c-0.7-0.1-1-0.4-1-0.9c0-0.5,0.3-0.8,1.3-1.1
				c3.9-1.5,7.2-3.8,9.3-6.2c0.3-0.3,0.8-0.6,1.1-0.6c0.6,0,0.8,0.4,0.8,1.3v4c0,0.9,0,1,0.2,1c0.1,0,0.4-0.2,0.7-0.6
				c0.6-0.9,2.1-2.1,3.6-3.2c1.8-1.3,3.2-1.7,5-1.7c3.1,0,5.7,2.2,5.7,4.9c0,2.5-2.2,4.6-4.9,4.6c-1.5,0-2.7-0.6-4.1-2.1
				c-1.3-1.3-1.9-1.8-2.5-1.8c-0.7,0-1.8,0.7-2.6,1.8c-1,1.4-1.2,2.4-1.2,6V246.3z"/>
			<path class="st0" d="M418.3,230.6c-1.7,0-2.1,0.7-2.1,4.2c0,9,5.9,15.7,13.9,15.7c3.4,0,6.8-1.3,8.8-3.2c1.1-1.1,1.3-1.3,1.8-1.3
				c0.4,0,0.7,0.3,0.7,0.7c0,0.7-0.7,1.6-2,2.8c-3.7,3.5-8.4,5.3-13.5,5.3c-10.8,0-18.3-7.3-18.3-17.9c0-11.1,8.3-19.2,19.5-19.2
				c4.9,0,9.1,1.7,11.6,4.6c1.5,1.8,2.8,4.9,2.8,6.7c0,1.3-0.4,1.5-2.1,1.5H418.3z M428.1,228.1c3.2,0,5.4-1.5,5.4-3.8
				c0-2.9-2.5-4.7-6.5-4.7c-3.5,0-6.5,1.6-8.3,4.5c-0.8,1.2-1.3,2.5-1.3,3.2c0,0.7,0.1,0.8,2.1,0.8H428.1z"/>
			<path class="st0" d="M472.4,230.6c-1.7,0-2.1,0.7-2.1,4.2c0,9,5.9,15.7,13.9,15.7c3.4,0,6.8-1.3,8.8-3.2c1.1-1.1,1.3-1.3,1.8-1.3
				c0.4,0,0.7,0.3,0.7,0.7c0,0.7-0.7,1.6-2,2.8c-3.7,3.5-8.4,5.3-13.5,5.3c-10.8,0-18.3-7.3-18.3-17.9c0-11.1,8.3-19.2,19.5-19.2
				c4.9,0,9.1,1.7,11.6,4.6c1.5,1.8,2.8,4.9,2.8,6.7c0,1.3-0.4,1.5-2.1,1.5H472.4z M482.2,228.1c3.2,0,5.4-1.5,5.4-3.8
				c0-2.9-2.5-4.7-6.5-4.7c-3.5,0-6.5,1.6-8.3,4.5c-0.8,1.2-1.3,2.5-1.3,3.2c0,0.7,0.1,0.8,2.1,0.8H482.2z"/>
			<path class="st0" d="M518.9,223.6c0-1.1-0.3-1.4-1.4-1.4H517c-0.7,0.1-1.3,0.1-1.4,0.1c-0.8,0-1.3-0.3-1.3-1
				c0-0.7,0.1-0.8,3.5-2.4c2.6-1.5,4.8-3.9,6.7-7c0.4-0.6,0.9-1,1.3-1c0.4,0,0.7,0.5,0.7,1.3v5.2c0,1.5,0.3,1.8,1.9,1.8h6.6
				c1.4,0,1.8,0.3,1.8,1.5c0,1.1-0.4,1.5-1.5,1.5H528c-1.3,0-1.5,0.1-1.5,1.9v19.2c0,5.3,1.3,7.2,4.9,7.2c1.7,0,2.4-0.2,5.2-2.1
				c0.4-0.1,0.7-0.3,0.9-0.3c0.3,0,0.6,0.3,0.6,0.7c0,0.5-0.4,1.1-1.3,1.9c-3.2,2.7-6.3,4.1-9.5,4.1c-5,0-8.3-3.4-8.3-8.6V223.6z"/>
		</g>
	</g>
</g>
</svg>
